<?xml version="1.0" standalone="no"?>
<!DOCTYPE svg PUBLIC "-//W3C//DTD SVG 20010904//EN"
 "http://www.w3.org/TR/2001/REC-SVG-20010904/DTD/svg10.dtd">
<svg version="1.0" xmlns="http://www.w3.org/2000/svg"
 width="80" height="73" viewBox="0 0 2048.000000 1862.000000"
 preserveAspectRatio="xMidYMid meet">

<g transform="translate(0.000000,1862.000000) scale(0.100000,-0.100000)"
fill="#5CE1E6" stroke="none">
<path d="M9895 18610 c-445 -25 -833 -82 -1232 -180 -993 -245 -1912 -706
-2668 -1339 -405 -339 -806 -758 -1103 -1153 -447 -596 -802 -1284 -1031
-2002 -67 -209 -137 -109 572 -811 336 -334 623 -615 637 -624 22 -14 173 -16
1615 -21 l1590 -5 5 -1625 5 -1625 21 -45 c12 -25 108 -151 214 -280 106 -129
407 -498 669 -820 262 -322 547 -672 633 -778 l158 -194 0 3541 0 3541 -1885
0 -1885 0 0 -305 0 -305 1573 0 c1343 0 1576 -2 1593 -14 19 -14 19 -51 22
-2313 2 -1264 0 -2331 -3 -2372 l-7 -74 -38 39 c-86 87 -450 549 -460 583 -6
23 -10 688 -10 1849 l0 1812 -1760 0 c-1485 0 -1766 2 -1793 14 -18 8 -204
186 -424 408 -354 354 -393 397 -393 426 0 95 265 684 465 1032 166 290 398
619 626 891 153 182 530 557 718 713 861 717 1781 1153 2838 1345 375 68 672
95 1063 95 753 1 1431 -118 2130 -373 1304 -477 2474 -1465 3171 -2678 213
-371 411 -831 523 -1213 135 -460 206 -607 371 -774 280 -281 495 -488 495
-475 0 21 -47 380 -66 509 -124 820 -443 1664 -926 2454 -545 890 -1315 1646
-2243 2203 -910 545 -1847 846 -2905 933 -179 14 -687 20 -875 10z"/>
<path d="M9905 16894 c-1371 -108 -2581 -716 -3440 -1729 -99 -117 -255 -319
-255 -330 0 -3 166 -5 369 -5 l369 0 34 27 c18 15 101 92 183 172 205 197 313
292 452 398 633 482 1360 769 2183 860 329 36 808 21 1155 -38 948 -159 1795
-606 2451 -1293 61 -63 121 -117 134 -121 14 -3 186 -4 383 -3 l358 3 -72 95
c-826 1094 -2004 1769 -3384 1941 -138 17 -236 22 -520 24 -192 1 -372 1 -400
-1z"/>
<path d="M10530 10633 c0 -3451 1 -3547 18 -3528 11 11 154 191 319 400 164
209 459 583 654 830 552 700 651 827 666 855 10 20 13 317 13 1641 0 1379 2
1618 14 1635 14 19 42 19 1446 22 1006 1 1444 -1 1474 -9 36 -9 110 -79 599
-567 307 -306 560 -567 563 -580 4 -12 -1 -69 -10 -125 -9 -56 -27 -176 -42
-267 -28 -180 -71 -392 -104 -516 -255 -945 -646 -1712 -1234 -2419 -132 -159
-538 -564 -701 -699 -771 -642 -1650 -1094 -2535 -1305 -436 -103 -810 -149
-1291 -158 -597 -11 -1080 43 -1624 182 -1117 285 -2069 833 -2857 1644 -582
599 -1037 1295 -1326 2031 -303 773 -450 1661 -407 2470 11 214 12 278 2 301
-13 33 -503 529 -522 529 -7 0 -16 -40 -23 -107 -6 -60 -18 -164 -26 -233 -46
-389 -49 -1002 -6 -1425 36 -353 131 -837 230 -1170 457 -1539 1381 -2798
2717 -3702 992 -672 2137 -1050 3371 -1113 275 -14 873 8 1222 46 973 105
2173 589 3070 1238 886 642 1606 1524 2100 2574 260 552 402 980 509 1532 63
327 122 834 107 915 -7 34 -27 59 -139 169 -73 71 -406 402 -742 736 -520 519
-616 610 -650 619 -28 8 -577 11 -1885 11 -1654 0 -1848 -2 -1868 -16 l-22
-15 0 -1784 c0 -1752 0 -1784 -20 -1847 -20 -66 -31 -83 -131 -205 -30 -37
-113 -141 -183 -230 -70 -90 -130 -163 -132 -163 -2 0 -4 1071 -4 2380 l0
2380 1568 0 c1338 0 1571 2 1588 14 18 14 19 31 22 295 l3 281 -1896 0 -1895
0 0 -3547z"/>
<path d="M5365 11670 c-4 -6 151 -296 344 -645 193 -348 351 -636 351 -639 0
-3 -205 -7 -456 -8 l-455 -3 183 -247 c101 -135 435 -586 743 -1001 308 -415
561 -752 563 -747 1 4 -28 83 -66 176 -241 589 -522 1283 -522 1288 0 3 185 6
410 6 375 0 410 1 410 17 0 17 -25 73 -435 968 -390 851 -365 803 -442 831
-48 17 -618 20 -628 4z"/>
<path d="M14535 11670 c-51 -11 -94 -39 -119 -78 -14 -20 -109 -219 -212 -442
-102 -223 -243 -526 -311 -675 -121 -261 -273 -601 -273 -611 0 -2 184 -4 409
-4 226 0 412 -4 415 -9 3 -4 -28 -89 -68 -187 -40 -98 -146 -359 -236 -579
-89 -220 -189 -464 -221 -542 -32 -79 -55 -143 -50 -143 9 0 -46 -74 1060
1418 58 79 175 237 259 350 l154 207 -456 3 c-251 1 -456 4 -456 6 0 4 290
532 543 986 120 217 159 296 148 297 -44 6 -560 8 -586 3z"/>
<path d="M13565 8044 c-110 -103 -247 -217 -410 -339 -635 -477 -1338 -782
-2085 -904 -306 -50 -395 -56 -820 -56 -354 1 -427 3 -580 22 -569 71 -1054
215 -1545 458 -415 206 -743 429 -1166 795 l-64 55 65 -75 c36 -41 123 -132
194 -203 668 -665 1549 -1092 2512 -1217 890 -115 1815 39 2603 434 473 238
924 582 1257 961 142 161 146 169 39 69z"/>
<!-- <path d="M14674 4011 c-47 -22 -109 -90 -126 -140 -10 -28 -13 -345 -16 -1364
l-2 -1327 230 0 230 0 0 1030 c0 593 4 1030 9 1030 5 0 467 -461 1027 -1023
1144 -1150 1069 -1082 1208 -1075 65 3 79 7 113 34 45 36 78 82 95 133 10 28
13 337 16 1369 l2 1332 -230 0 -230 0 0 -1030 c0 -760 -3 -1030 -11 -1030 -7
0 -302 290 -658 643 -974 970 -1366 1356 -1408 1387 -74 53 -173 66 -249 31z"/> -->
<!-- <path d="M3540 3992 c-489 -2 -536 -3 -547 -19 -10 -13 -13 -310 -13 -1405 l0
-1388 240 0 240 0 0 1165 0 1165 848 0 c910 0 903 0 1004 -51 111 -56 204
-187 233 -326 19 -90 19 -290 0 -372 -43 -179 -163 -306 -341 -358 -53 -15
-128 -17 -693 -21 -385 -2 -642 -7 -653 -13 -16 -9 -18 -27 -18 -210 l0 -200
513 2 c386 1 519 -2 539 -11 14 -7 147 -146 295 -308 147 -163 306 -335 353
-384 l85 -88 329 2 c236 2 330 6 333 14 2 7 -184 195 -414 418 -230 224 -419
411 -421 415 -2 5 26 22 62 39 83 39 177 103 245 166 201 190 305 517 273 858
-45 484 -297 794 -717 884 -102 22 -724 31 -1775 26z"/>
<path d="M7613 3988 c-14 -4 -30 -13 -34 -20 -10 -15 -12 -371 -3 -405 l6 -23
965 0 c829 0 964 -2 961 -14 -3 -14 -147 -161 -1340 -1364 -590 -595 -616
-625 -633 -715 -18 -93 40 -198 133 -244 l57 -28 1288 -3 c1157 -2 1288 -1
1293 13 4 9 3 107 -1 219 l-7 204 -42 6 c-22 4 -463 9 -978 12 -516 3 -938 9
-938 13 0 5 330 341 733 747 1202 1214 1191 1203 1222 1264 52 102 32 210 -52
279 -76 63 -18 61 -1371 63 -678 2 -1244 0 -1259 -4z"/>
<path d="M12 3973 c-5 -10 -9 -112 -8 -226 1 -194 2 -210 20 -223 17 -12 106
-14 538 -14 l518 0 0 -1165 0 -1165 240 0 240 0 0 1153 c0 883 3 1156 12 1165
9 9 138 12 519 12 279 0 514 3 523 6 14 5 16 36 16 240 l0 234 -1305 0 c-1232
0 -1305 -1 -1313 -17z"/>
<path d="M6610 2580 l0 -1410 235 0 235 0 0 1410 0 1410 -235 0 -235 0 0
-1410z"/>
<path d="M11865 3979 c-127 -11 -205 -27 -321 -64 -190 -62 -324 -144 -464
-285 -182 -181 -327 -454 -385 -720 -22 -103 -31 -345 -16 -464 31 -247 143
-543 278 -733 217 -308 518 -481 908 -523 250 -27 981 -20 1173 10 98 16 230
58 320 102 357 174 656 578 749 1011 28 127 25 437 -5 576 -142 653 -521 1012
-1152 1090 -97 13 -947 12 -1085 0z m1105 -493 c357 -82 605 -362 660 -744 17
-116 8 -315 -19 -417 -23 -88 -83 -220 -132 -293 -91 -133 -253 -265 -386
-316 -155 -58 -161 -59 -660 -63 -399 -4 -474 -2 -550 12 -343 64 -609 317
-695 662 -19 74 -22 116 -23 268 0 155 3 191 22 260 93 341 353 587 681 645
26 5 268 7 537 6 421 -3 501 -6 565 -20z"/> -->
<!-- <path d="M17972 3978 c-9 -9 -12 -334 -12 -1400 0 -1361 0 -1387 19 -1398 13
-7 423 -10 1255 -10 l1236 0 0 240 0 240 -1008 0 c-771 0 -1011 3 -1020 12
-17 17 -17 1819 0 1836 9 9 246 12 1003 12 861 0 993 2 1012 15 20 14 21 22
21 222 0 115 -4 216 -10 226 -8 16 -78 17 -1246 17 -950 0 -1241 -3 -1250 -12z"/>
<path d="M18820 2610 l0 -190 770 0 770 0 0 190 0 190 -770 0 -770 0 0 -190z"/>
<path d="M4765 521 c-77 -19 -155 -90 -174 -158 -14 -48 -14 -147 -1 -194 15
-54 82 -124 138 -146 137 -52 283 14 328 151 21 63 15 166 -14 222 -50 98
-168 151 -277 125z m161 -42 c71 -33 114 -113 114 -207 0 -80 -16 -127 -56
-172 -64 -71 -175 -90 -268 -45 -112 54 -150 237 -73 352 65 97 173 124 283
72z"/>
<path d="M9067 514 c-204 -65 -226 -385 -32 -479 105 -52 221 -31 295 52 41
47 60 94 60 151 l0 32 -125 0 c-77 0 -125 -4 -125 -10 0 -6 45 -10 116 -10
l116 0 -7 -37 c-20 -111 -108 -183 -224 -183 -155 1 -253 167 -196 331 54 151
266 191 369 69 14 -17 26 -36 26 -41 0 -5 7 -9 15 -9 22 0 19 12 -14 57 -55
75 -175 109 -274 77z"/>
<path d="M15582 516 c-62 -20 -109 -60 -138 -118 -94 -185 22 -393 216 -391
131 1 223 83 245 220 16 102 -42 226 -125 269 -58 30 -142 38 -198 20z m173
-33 c84 -42 120 -107 120 -218 0 -67 -4 -87 -25 -125 -72 -129 -259 -150 -353
-39 -57 66 -73 170 -42 260 43 121 186 179 300 122z"/>
<path d="M3780 265 c0 -158 4 -255 10 -255 5 0 11 49 12 113 l3 112 95 5 c102
6 127 15 159 56 29 37 29 131 0 168 -36 46 -69 56 -179 56 l-100 0 0 -255z
m215 221 c92 -39 84 -188 -12 -216 -21 -6 -69 -10 -108 -8 l-70 3 -3 104 c-1
58 0 111 2 118 7 18 146 17 191 -1z"/> -->
<!-- <path d="M5562 503 c3 -10 34 -125 69 -255 48 -179 68 -238 79 -238 12 0 34
59 84 223 37 122 71 226 75 230 4 4 22 -41 40 -100 92 -305 107 -348 122 -351
13 -2 25 28 54 135 21 76 53 190 70 253 19 68 29 117 23 119 -17 6 -23 -13
-77 -220 -58 -223 -65 -246 -73 -233 -4 5 -31 95 -62 199 -79 265 -75 255 -94
255 -13 0 -30 -42 -76 -196 -32 -108 -62 -212 -68 -230 -5 -19 -12 -34 -16
-34 -4 0 -34 104 -66 230 -43 169 -63 230 -74 230 -9 0 -13 -7 -10 -17z"/>
<path d="M6690 265 l0 -255 130 0 c80 0 130 4 130 10 0 6 -45 10 -115 10
l-115 0 0 115 0 115 105 0 c63 0 105 4 105 10 0 6 -42 10 -105 10 l-105 0 0
110 0 110 115 0 c70 0 115 4 115 10 0 6 -50 10 -130 10 l-130 0 0 -255z"/>
<path d="M7470 265 c0 -220 2 -255 15 -255 12 0 15 19 15 110 l0 110 59 0 59
0 63 -106 c34 -58 68 -108 76 -111 30 -12 30 -11 -88 184 l-20 32 45 19 c75
34 103 105 72 185 -26 68 -69 87 -195 87 l-101 0 0 -255z m220 217 c42 -21 60
-53 60 -108 0 -81 -61 -124 -180 -124 l-70 0 0 125 0 125 78 0 c53 0 88 -5
112 -18z"/>
<path d="M9920 265 l0 -255 125 0 c158 0 168 18 13 22 l-113 3 0 110 0 110
103 3 c136 4 134 22 -3 22 l-105 0 0 110 0 110 115 0 c70 0 115 4 115 10 0 6
-48 10 -125 10 l-125 0 0 -255z"/>
<path d="M10690 265 c0 -219 2 -255 15 -255 12 0 15 35 17 232 l3 232 152
-232 c89 -135 159 -232 168 -232 13 0 15 33 15 255 0 219 -2 255 -15 255 -12
0 -15 -34 -17 -227 l-3 -228 -150 227 c-100 151 -156 228 -167 228 -17 0 -18
-19 -18 -255z"/>
<path d="M11600 265 l0 -255 130 0 c80 0 130 4 130 10 0 6 -45 10 -115 10
l-115 0 0 115 0 115 100 0 c60 0 100 4 100 10 0 6 -40 10 -100 10 l-100 0 0
110 0 110 115 0 c70 0 115 4 115 10 0 6 -50 10 -130 10 l-130 0 0 -255z"/>
<path d="M12380 265 c0 -163 4 -255 10 -255 6 0 10 43 10 110 l0 110 63 0 62
0 65 -110 c35 -61 70 -110 77 -110 7 0 13 3 13 6 0 4 -27 51 -60 106 -33 54
-60 103 -60 107 0 5 14 11 30 15 65 12 108 93 90 169 -18 81 -68 107 -205 107
l-95 0 0 -255z m215 219 c43 -20 69 -73 61 -123 -13 -79 -71 -114 -186 -109
l-65 3 -3 123 -3 122 82 0 c53 0 92 -5 114 -16z"/> -->
<!-- <path d="M14040 510 c0 -6 32 -10 75 -10 l75 0 0 -245 c0 -157 4 -245 10 -245
6 0 10 88 10 245 l0 245 75 0 c43 0 75 4 75 10 0 6 -60 10 -160 10 -100 0
-160 -4 -160 -10z"/>
<path d="M14860 265 c0 -220 2 -255 15 -255 13 0 15 35 15 255 0 220 -2 255
-15 255 -13 0 -15 -35 -15 -255z"/>
<path d="M16430 265 c0 -219 2 -255 15 -255 12 0 15 35 17 229 l3 230 150
-230 c82 -126 155 -229 162 -229 10 0 13 55 13 255 0 163 -4 255 -10 255 -6 0
-10 -82 -10 -225 0 -124 -3 -225 -7 -225 -5 0 -18 15 -30 33 -11 17 -78 119
-148 225 -70 105 -134 192 -141 192 -12 0 -14 -45 -14 -255z"/>
<path d="M13265 269 c-49 -133 -91 -246 -93 -250 -2 -5 3 -9 11 -9 8 0 24 27
38 62 l25 63 126 3 126 3 25 -63 c14 -35 32 -64 40 -66 10 -2 -13 71 -78 245
-72 193 -97 249 -111 251 -16 2 -33 -36 -109 -239z m168 51 c30 -80 53 -148
50 -152 -6 -11 -211 -10 -217 1 -3 5 17 69 44 142 28 74 53 140 55 148 3 8 7
12 10 10 2 -3 28 -70 58 -149z"/>
<path d="M0 265 c0 -13 167 -15 1440 -15 1273 0 1440 2 1440 15 0 13 -167 15
-1440 15 -1273 0 -1440 -2 -1440 -15z"/>
<path d="M17480 265 c0 -13 166 -15 1435 -15 1269 0 1435 2 1435 15 0 13 -166
15 -1435 15 -1269 0 -1435 -2 -1435 -15z"/> -->
</g>
</svg>
