<svg width="73" height="71" viewBox="0 0 73 71" fill="none" xmlns="http://www.w3.org/2000/svg">
<path d="M35.1002 0.856108C32.7018 0.987323 30.6106 1.28649 28.4601 1.80086C23.1081 3.08677 18.155 5.50639 14.0804 8.82877C11.8976 10.608 9.73629 12.8072 8.13555 14.8804C5.72635 18.0086 3.81301 21.6197 2.57877 25.3882C2.21766 26.4851 1.84038 25.9603 5.66168 29.6448C7.47261 31.3978 9.01946 32.8727 9.09491 32.9199C9.21349 32.9934 10.0273 33.0039 17.7993 33.0302L26.3689 33.0564L26.3958 41.5854L26.4228 50.1144L26.536 50.3506C26.6007 50.4818 27.1181 51.1432 27.6894 51.8202C28.2607 52.4973 29.883 54.4341 31.2951 56.1241C32.7072 57.8142 34.2432 59.6512 34.7068 60.2075L35.5583 61.2258V42.6404V24.055H25.3987H15.2392V25.6559V27.2567H23.7172C30.9555 27.2567 32.2113 27.2672 32.303 27.3302C32.4054 27.4036 32.4054 27.5978 32.4215 39.4702C32.4323 46.1045 32.4215 51.7048 32.4054 51.92L32.3676 52.3084L32.1628 52.1037C31.6993 51.647 29.7375 49.2222 29.6836 49.0437C29.6512 48.923 29.6297 45.4327 29.6297 39.339V29.8285H20.1438C12.1401 29.8285 10.6256 29.818 10.4801 29.755C10.3831 29.713 9.38057 28.7788 8.19483 27.6136C6.28688 25.7556 6.07668 25.5299 6.07668 25.3777C6.07668 24.8791 7.50495 21.7876 8.58289 19.9611C9.47758 18.439 10.728 16.7122 11.9568 15.2846C12.7815 14.3293 14.8134 12.3611 15.8266 11.5423C20.4672 7.77904 25.4257 5.49064 31.1226 4.48291C33.1437 4.126 34.7445 3.98429 36.8519 3.98429C40.9103 3.97904 44.5645 4.60362 48.3319 5.94202C55.3601 8.44562 61.666 13.6313 65.4226 19.9978C66.5707 21.9451 67.6378 24.3594 68.2415 26.3644C68.9691 28.7788 69.3517 29.5503 70.241 30.4268C71.7502 31.9017 72.9089 32.9882 72.9089 32.9199C72.9089 32.8097 72.6556 30.9255 72.5532 30.2484C71.8849 25.9445 70.1656 21.5147 67.5624 17.3683C64.625 12.697 60.4749 8.72904 55.4733 5.80556C50.5686 2.94506 45.5185 1.36522 39.8162 0.908594C38.8514 0.835113 36.1135 0.803621 35.1002 0.856108Z" fill="#6D6D6D"/>
<path d="M35.1541 9.86276C27.7648 10.4296 21.2433 13.6208 16.6135 18.9376C16.08 19.5517 15.2392 20.6119 15.2392 20.6697C15.2392 20.6854 16.1339 20.6959 17.228 20.6959H19.2168L19.4 20.5542C19.497 20.4755 19.9444 20.0713 20.3863 19.6514C21.4912 18.6175 22.0733 18.1188 22.8225 17.5625C26.2341 15.0327 30.1525 13.5263 34.5882 13.0487C36.3614 12.8597 38.9431 12.9385 40.8133 13.2481C45.9227 14.0827 50.4878 16.4288 54.0234 20.0346C54.3522 20.3653 54.6756 20.6487 54.7457 20.6697C54.8211 20.6854 55.7481 20.6907 56.8099 20.6854L58.7394 20.6697L58.3514 20.1711C53.8995 14.4291 47.5504 10.8862 40.1126 9.98348C39.3688 9.89426 38.8407 9.86801 37.31 9.85752C36.2752 9.85227 35.305 9.85227 35.1541 9.86276Z" fill="#6D6D6D"/>
<path d="M38.5227 42.7244C38.5227 60.8374 38.528 61.3413 38.6197 61.2415C38.679 61.1838 39.4497 60.239 40.339 59.1421C41.2229 58.0451 42.8129 56.0821 43.8638 54.7857C46.839 51.1117 47.3725 50.4451 47.4534 50.2982C47.5073 50.1932 47.5234 48.6343 47.5234 41.6852C47.5234 34.4473 47.5342 33.1929 47.5989 33.1037C47.6744 33.0039 47.8253 33.0039 55.3924 32.9882C60.8144 32.9829 63.1751 32.9934 63.3368 33.0354C63.5309 33.0827 63.9297 33.4501 66.5653 36.0114C68.2199 37.6175 69.5835 38.9874 69.5997 39.0556C69.6212 39.1186 69.5943 39.4178 69.5458 39.7117C69.4972 40.0056 69.4002 40.6354 69.3194 41.1131C69.1685 42.0578 68.9367 43.1705 68.7589 43.8213C67.3845 48.7813 65.2771 52.807 62.108 56.5178C61.3965 57.3523 59.2083 59.478 58.3298 60.1866C54.1743 63.5562 49.4368 65.9286 44.6669 67.036C42.317 67.5766 40.3013 67.8181 37.7088 67.8653C34.4912 67.923 31.8879 67.6396 28.9559 66.91C22.9356 65.4142 17.8047 62.5379 13.5576 58.2813C10.4208 55.1374 7.96846 51.4843 6.41083 47.6214C4.77776 43.5642 3.98547 38.9034 4.21723 34.6573C4.27651 33.534 4.2819 33.1981 4.22801 33.0774C4.15794 32.9042 1.51699 30.3009 1.41458 30.3009C1.37686 30.3009 1.32835 30.5108 1.29062 30.8625C1.25828 31.1774 1.19361 31.7233 1.15049 32.0854C0.902563 34.1271 0.886394 37.3445 1.11815 39.5647C1.31218 41.4175 1.8242 43.9578 2.35778 45.7056C4.82087 53.7832 9.80095 60.3913 17.0016 65.136C22.3482 68.6631 28.5194 70.6471 35.1703 70.9777C36.6524 71.0512 39.8755 70.9357 41.7565 70.7363C47.0006 70.1852 53.4683 67.6449 58.3028 64.2385C63.0781 60.8689 66.9587 56.2396 69.6212 50.7285C71.0225 47.8313 71.7879 45.5849 72.3646 42.6876C72.7041 40.9713 73.0221 38.3103 72.9413 37.8852C72.9035 37.7067 72.7957 37.5755 72.1921 36.9981C71.7986 36.6255 70.0039 34.8882 68.1929 33.1352C65.3903 30.4111 64.8729 29.9335 64.6896 29.8863C64.5387 29.8443 61.5798 29.8285 54.5301 29.8285C45.6155 29.8285 44.5699 29.839 44.4621 29.9125L44.3435 29.9912V39.3548C44.3435 48.5504 44.3435 48.7183 44.2357 49.049C44.1279 49.3954 44.0687 49.4846 43.5297 50.1249C43.368 50.3191 42.9206 50.865 42.5434 51.3321C42.1661 51.8045 41.8427 52.1877 41.8319 52.1877C41.8212 52.1877 41.8104 46.5664 41.8104 39.6959V27.2042H50.2614C57.4728 27.2042 58.7286 27.1937 58.8203 27.1307C58.9173 27.0572 58.9227 26.968 58.9388 25.5824L58.955 24.1075H48.7361H38.5227V42.7244Z" fill="#6D6D6D"/>
<path d="M10.6849 37.2815C10.6633 37.313 11.4987 38.8351 12.5389 40.6669C13.5791 42.4934 14.4307 44.005 14.4307 44.0208C14.4307 44.0365 13.3258 44.0575 11.973 44.0628L9.52069 44.0785L10.507 45.3749C11.0514 46.0835 12.8515 48.4506 14.5116 50.6288C16.1716 52.807 17.5352 54.5758 17.546 54.5495C17.5513 54.5285 17.395 54.1139 17.1902 53.6258C15.8913 50.5343 14.3768 46.8918 14.3768 46.8655C14.3768 46.8498 15.3739 46.834 16.5866 46.834C18.6077 46.834 18.7964 46.8288 18.7964 46.7448C18.7964 46.6556 18.6616 46.3617 16.4518 41.6641C14.3499 37.1976 14.4846 37.4495 14.0696 37.3025C13.8109 37.2133 10.7388 37.1976 10.6849 37.2815Z" fill="#6D6D6D"/>
<path d="M60.1084 37.2815C59.8335 37.3393 59.6018 37.4862 59.467 37.6909C59.3916 37.7959 58.8795 38.8404 58.3244 40.0108C57.7747 41.1813 57.0147 42.7716 56.6482 43.5536C55.9961 44.9235 55.1768 46.7081 55.1768 46.7605C55.1768 46.771 56.1685 46.7815 57.3812 46.7815C58.5993 46.7815 59.6018 46.8025 59.6179 46.8288C59.6341 46.8498 59.467 47.2959 59.2514 47.8103C59.0358 48.3246 58.4645 49.6945 57.9795 50.8492C57.4998 52.0039 56.9608 53.2846 56.7883 53.694C56.6159 54.1086 56.4919 54.4445 56.5189 54.4445C56.5674 54.4445 56.2709 54.8329 62.2319 47.002C62.5445 46.5873 63.1751 45.7581 63.6279 45.165L64.4579 44.0785L62.0002 44.0628C60.6474 44.0575 59.5425 44.0418 59.5425 44.0313C59.5425 44.0103 61.1055 41.239 62.4691 38.8561C63.1158 37.7172 63.326 37.3025 63.2668 37.2973C63.0296 37.2658 60.2485 37.2553 60.1084 37.2815Z" fill="#6D6D6D"/>
<path d="M54.8804 56.3131C54.2875 56.8537 53.5491 57.4521 52.6706 58.0924C49.2481 60.596 45.4592 62.1968 41.4331 62.8371C39.7838 63.0996 39.3041 63.1311 37.0135 63.1311C35.1056 63.1258 34.7121 63.1153 33.8875 63.0156C30.8208 62.6429 28.2068 61.8871 25.5604 60.6117C23.3237 59.5305 21.5559 58.3601 19.276 56.4391L18.9311 56.1504L19.2814 56.544C19.4755 56.7592 19.9444 57.2369 20.327 57.6095C23.9273 61.0998 28.6757 63.341 33.8659 63.9971C38.6628 64.6007 43.6482 63.7924 47.8953 61.7192C50.4447 60.47 52.8754 58.6645 54.6702 56.6753C55.4355 55.8302 55.4571 55.7882 54.8804 56.3131Z" fill="#6D6D6D"/>
</svg>
