<svg width="88" height="15" viewBox="0 0 88 15" fill="none" xmlns="http://www.w3.org/2000/svg">
<path d="M6.97625 14H4.25825V3.416H0.76625V1.148H10.4683V3.416H6.97625V14ZM16.5541 1.148C18.2101 1.148 19.4161 1.508 20.1721 2.228C20.9401 2.936 21.3241 3.914 21.3241 5.162C21.3241 5.726 21.2401 6.266 21.0721 6.782C20.9041 7.286 20.6221 7.742 20.2261 8.15C19.8421 8.546 19.3321 8.858 18.6961 9.086C18.0601 9.314 17.2741 9.428 16.3381 9.428H15.1681V14H12.4501V1.148H16.5541ZM16.4101 3.38H15.1681V7.196H16.0681C16.5841 7.196 17.0281 7.13 17.4001 6.998C17.7721 6.866 18.0601 6.656 18.2641 6.368C18.4681 6.08 18.5701 5.708 18.5701 5.252C18.5701 4.616 18.3961 4.148 18.0481 3.848C17.7001 3.536 17.1541 3.38 16.4101 3.38ZM23.7528 1.148H26.2008V7.358C26.2008 7.658 26.1948 7.994 26.1828 8.366C26.1708 8.738 26.1588 9.104 26.1468 9.464C26.1348 9.812 26.1228 10.118 26.1108 10.382C26.0988 10.634 26.0868 10.808 26.0748 10.904H26.1288L32.0688 1.148H35.3268V14H32.8968V7.826C32.8968 7.502 32.9028 7.148 32.9148 6.764C32.9268 6.368 32.9388 5.99 32.9508 5.63C32.9748 5.27 32.9928 4.958 33.0048 4.694C33.0288 4.418 33.0468 4.238 33.0588 4.154H32.9868L27.0288 14H23.7528V1.148Z" fill="white"/>
<path d="M47.4452 4.154C47.4452 5.018 47.1392 5.714 46.5272 6.242C45.9152 6.77 45.1352 7.1 44.1872 7.232V7.286C45.3632 7.406 46.2632 7.736 46.8872 8.276C47.5232 8.804 47.8412 9.494 47.8412 10.346C47.8412 11.09 47.6372 11.756 47.2292 12.344C46.8212 12.92 46.2152 13.37 45.4112 13.694C44.6072 14.018 43.6112 14.18 42.4232 14.18C41.4512 14.18 40.5872 14.12 39.8312 14C39.0872 13.88 38.4392 13.706 37.8872 13.478V11.192C38.2592 11.372 38.6792 11.528 39.1472 11.66C39.6152 11.78 40.0892 11.876 40.5692 11.948C41.0492 12.008 41.4932 12.038 41.9012 12.038C43.0412 12.038 43.8632 11.876 44.3672 11.552C44.8832 11.216 45.1412 10.748 45.1412 10.148C45.1412 9.536 44.7692 9.092 44.0252 8.816C43.2812 8.528 42.2792 8.384 41.0192 8.384H39.8132V6.26H40.8932C41.9132 6.26 42.7052 6.194 43.2692 6.062C43.8332 5.93 44.2292 5.738 44.4572 5.486C44.6852 5.234 44.7992 4.934 44.7992 4.586C44.7992 4.142 44.6012 3.794 44.2052 3.542C43.8212 3.278 43.2392 3.146 42.4592 3.146C41.7992 3.146 41.1752 3.242 40.5872 3.434C40.0112 3.626 39.4712 3.878 38.9672 4.19L37.7792 2.372C38.2232 2.084 38.6912 1.838 39.1832 1.634C39.6872 1.418 40.2392 1.256 40.8392 1.148C41.4392 1.028 42.1052 0.967999 42.8372 0.967999C43.8092 0.967999 44.6372 1.106 45.3212 1.382C46.0052 1.658 46.5272 2.036 46.8872 2.516C47.2592 2.984 47.4452 3.53 47.4452 4.154ZM61.907 7.556C61.907 8.552 61.781 9.458 61.529 10.274C61.289 11.078 60.917 11.774 60.413 12.362C59.921 12.95 59.285 13.4 58.505 13.712C57.737 14.024 56.831 14.18 55.787 14.18C54.743 14.18 53.831 14.024 53.051 13.712C52.283 13.388 51.647 12.938 51.143 12.362C50.651 11.774 50.279 11.072 50.027 10.256C49.787 9.44 49.667 8.534 49.667 7.538C49.667 6.206 49.883 5.048 50.315 4.064C50.759 3.08 51.431 2.318 52.331 1.778C53.243 1.226 54.401 0.95 55.805 0.95C57.197 0.95 58.343 1.226 59.243 1.778C60.143 2.318 60.809 3.086 61.241 4.082C61.685 5.066 61.907 6.224 61.907 7.556ZM52.529 7.556C52.529 8.456 52.643 9.23 52.871 9.878C53.099 10.526 53.453 11.024 53.933 11.372C54.413 11.72 55.031 11.894 55.787 11.894C56.567 11.894 57.191 11.72 57.659 11.372C58.139 11.024 58.487 10.526 58.703 9.878C58.931 9.23 59.045 8.456 59.045 7.556C59.045 6.2 58.793 5.138 58.289 4.37C57.785 3.602 56.957 3.218 55.805 3.218C55.037 3.218 54.413 3.392 53.933 3.74C53.453 4.088 53.099 4.586 52.871 5.234C52.643 5.882 52.529 6.656 52.529 7.556ZM75.0992 14H72.3812V8.456H67.2872V14H64.5692V1.148H67.2872V6.188H72.3812V1.148H75.0992V14ZM83.7869 3.236C83.2709 3.236 82.8089 3.338 82.4009 3.542C82.0049 3.746 81.6689 4.04 81.3929 4.424C81.1169 4.796 80.9069 5.252 80.7629 5.792C80.6309 6.332 80.5649 6.938 80.5649 7.61C80.5649 8.522 80.6729 9.302 80.8889 9.95C81.1169 10.586 81.4709 11.072 81.9509 11.408C82.4309 11.744 83.0429 11.912 83.7869 11.912C84.3149 11.912 84.8369 11.852 85.3529 11.732C85.8809 11.612 86.4509 11.444 87.0629 11.228V13.514C86.4989 13.742 85.9409 13.91 85.3889 14.018C84.8369 14.126 84.2189 14.18 83.5349 14.18C82.2149 14.18 81.1229 13.91 80.2589 13.37C79.4069 12.818 78.7769 12.05 78.3689 11.066C77.9609 10.07 77.7569 8.912 77.7569 7.592C77.7569 6.62 77.8889 5.732 78.1529 4.928C78.4169 4.112 78.8009 3.41 79.3049 2.822C79.8209 2.234 80.4509 1.778 81.1949 1.454C81.9509 1.13 82.8149 0.967999 83.7869 0.967999C84.4229 0.967999 85.0589 1.052 85.6949 1.22C86.3429 1.376 86.9609 1.592 87.5489 1.868L86.6669 4.082C86.1869 3.854 85.7009 3.656 85.2089 3.488C84.7289 3.32 84.2549 3.236 83.7869 3.236Z" fill="#5CE1E6"/>
</svg>
