<svg xmlns="http://www.w3.org/2000/svg" width="213" height="38" fill="none"><path d="M81.187 30.545h-6.393l-5.752-8.799h-6.164v8.8h-5.385V8.684h14.849c1.535 0 2.727.137 3.574.412 1.375.413 2.43 1.169 3.186 2.269.756 1.1 1.122 2.383 1.122 3.85 0 1.054-.183 2.016-.573 2.887-.458 1.03-1.076 1.787-1.901 2.268-.825.482-1.88.825-3.14 1.054l6.577 9.143v-.023zM62.9 12.511v5.363h8.89c1.994 0 3.003-.871 3.003-2.613 0-1.833-1.077-2.75-3.209-2.75h-8.684zm20.577-3.85h5.385v13.314c0 .894.16 1.65.504 2.315a3.872 3.872 0 001.398 1.512c.596.367 1.26.619 1.994.78.733.16 1.512.251 2.406.251.756 0 1.466-.068 2.13-.206a9.078 9.078 0 001.971-.665 3.813 3.813 0 001.536-1.352 3.897 3.897 0 00.573-2.085V8.64h5.385v13.91c0 2.864-1.054 5.04-3.185 6.507-2.109 1.466-4.904 2.2-8.341 2.2-3.506 0-6.325-.733-8.502-2.223-2.154-1.49-3.23-3.666-3.23-6.53V8.661h-.024zm27.727 0h13.978c.825 0 1.49.024 2.017.07.527.045 1.214.206 2.039.48.825.276 1.49.688 1.994 1.261.825.94 1.214 2.108 1.214 3.552 0 2.314-1.191 3.873-3.575 4.652 3.094.733 4.652 2.566 4.675 5.522 0 1.535-.321 2.75-.939 3.69-.413.618-.871 1.122-1.398 1.512a4.845 4.845 0 01-1.811.825c-.687.16-1.237.252-1.672.275-.436.023-1.009.045-1.742.045h-14.803V8.685l.023-.023zm5.339 8.571h8.135c1.742 0 2.589-.802 2.589-2.406-.023-1.581-.87-2.383-2.566-2.383h-8.158v4.812-.023zm0 9.44h8.433c2.131 0 3.208-.985 3.208-2.978 0-1.764-.962-2.658-2.864-2.658h-8.777v5.637zm41.705 3.85h-20.715V8.663h20.096v3.941h-14.688v4.927h14.207v3.895h-14.207v5.202h15.307v3.896zm25.046 0h-22.181v-3.987l14.871-14H162.19V8.661h21.105v3.872L168.4 26.535h14.895v3.988zm28.781 0h-5.408v-9.394h-13.016v9.395h-5.407V8.662h5.407v8.432h13.016V8.662h5.408v21.86z" fill="#73808C"/><path fill-rule="evenodd" clip-rule="evenodd" d="M39.024 17.209l1.673-3.85H23.053l-3.53-4.88H48.489l-5.958 13.61-6.737.024L47 37.58h-6.417l-4.422-6.118-10.312-14.253 13.153-.023.023.023zM13.383 0l3.528 4.88L13.383.024V0z" fill="#73808C"/><path fill-rule="evenodd" clip-rule="evenodd" d="M23.052 13.36h-.046l-3.895 8.776h-5.66L19.523 8.5l3.53 4.881v-.023zM36.16 31.484l-.71-.985c-11.252 0-23.282-.023-34.533-.023H0L13.382 0l3.53 4.858L7.79 25.596l24.106.023-6.072-8.387h.046l10.311 14.253h-.023z" fill="#73808C"/></svg>