<svg width="95" height="36" viewBox="0 0 95 36" fill="none" xmlns="http://www.w3.org/2000/svg">
                        <path d="M39.5277 36H28.8595L19.2963 21.5065H8.96812V36H0V0H24.7792C27.3294 0 29.327 0.212515 30.7296 0.680047C33.0248 1.36009 34.7674 2.59268 36.0425 4.42031C37.3176 6.24793 37.9126 8.37308 37.9126 10.7532C37.9126 12.4959 37.5726 14.0685 36.9351 15.5136C36.17 17.2137 35.1074 18.4463 33.7473 19.2538C32.4298 20.0189 30.6871 20.5714 28.562 20.954L39.5277 36ZM8.96812 6.33294V15.1736H23.8017C27.1169 15.1736 28.817 13.7285 28.817 10.8808C28.817 7.86305 27.0319 6.33294 23.4616 6.33294H8.96812Z" fill="#5B6770"></path>
                        <path d="M80.7972 0L64.6461 36H55.8905L39.5693 0H49.515L60.2683 26.5643L71.1065 0H80.7972Z" fill="#5B6770"></path>
                        <path d="M94.0165 36H85.0059V0H94.0165V36Z" fill="#5B6770"></path>
                    </svg>