<svg width="381" height="382" viewBox="0 0 381 382" fill="none" xmlns="http://www.w3.org/2000/svg" opacity="0.25">
<path fill-rule="evenodd" clip-rule="evenodd" d="M190.504 371.883C290.192 371.883 371.004 291.07 371.004 191.383C371.004 91.6952 290.192 10.8826 190.504 10.8826C90.8168 10.8826 10.0042 91.6952 10.0042 191.383C10.0042 291.07 90.8168 371.883 190.504 371.883ZM190.504 381.883C295.714 381.883 381.004 296.593 381.004 191.383C381.004 86.1723 295.714 0.882568 190.504 0.882568C85.294 0.882568 0.00421143 86.1723 0.00421143 191.383C0.00421143 296.593 85.294 381.883 190.504 381.883Z" fill="url(#paint0_linear_253528_150)" fill-opacity="0.3"/>
<path fill-rule="evenodd" clip-rule="evenodd" d="M112.311 98.1955C60.8453 141.38 54.1324 218.11 97.3173 269.576C140.502 321.042 217.232 327.755 268.698 284.57C320.163 241.385 326.876 164.655 283.691 113.189C240.506 61.7236 163.777 55.0106 112.311 98.1955ZM109.097 94.3653C55.516 139.325 48.5271 219.209 93.487 272.79C138.447 326.371 218.33 333.36 271.911 288.4C325.493 243.44 332.481 163.557 287.522 109.975C242.562 56.3943 162.678 49.4054 109.097 94.3653Z" fill="url(#paint1_linear_253528_150)" fill-opacity="0.3"/>
<path fill-rule="evenodd" clip-rule="evenodd" d="M153.663 147.476C129.414 167.823 126.251 203.975 146.598 228.224C166.945 252.473 203.097 255.636 227.346 235.289C251.595 214.942 254.758 178.789 234.411 154.541C214.064 130.292 177.911 127.129 153.663 147.476ZM150.449 143.646C124.084 165.768 120.646 205.074 142.768 231.438C164.89 257.802 204.196 261.241 230.56 239.119C256.924 216.997 260.363 177.691 238.241 151.327C216.119 124.962 176.813 121.524 150.449 143.646Z" fill="url(#paint2_linear_253528_150)" fill-opacity="0.3"/>
<path d="M189.146 156.026C186.748 156.157 184.657 156.456 182.506 156.971C177.154 158.257 172.201 160.676 168.126 163.999C165.944 165.778 163.782 167.977 162.182 170.05C159.772 173.179 157.859 176.79 156.625 180.558C156.264 181.655 155.886 181.13 159.708 184.815C161.519 186.568 163.065 188.043 163.141 188.09C163.26 188.163 164.073 188.174 171.845 188.2L180.415 188.226L180.442 196.755L180.469 205.284L180.582 205.521C180.647 205.652 181.164 206.313 181.735 206.99C182.307 207.667 183.929 209.604 185.341 211.294C186.753 212.984 188.289 214.821 188.753 215.378L189.604 216.396V197.81V179.225H179.445H169.285V180.826V182.427H177.763C185.002 182.427 186.257 182.437 186.349 182.5C186.451 182.574 186.451 182.768 186.468 194.64C186.478 201.274 186.468 206.875 186.451 207.09L186.414 207.478L186.209 207.274C185.745 206.817 183.783 204.392 183.73 204.214C183.697 204.093 183.676 200.603 183.676 194.509V184.998H174.19C166.186 184.998 164.672 184.988 164.526 184.925C164.429 184.883 163.427 183.949 162.241 182.784C160.333 180.926 160.123 180.7 160.123 180.548C160.123 180.049 161.551 176.958 162.629 175.131C163.524 173.609 164.774 171.882 166.003 170.455C166.827 169.499 168.859 167.531 169.873 166.712C174.513 162.949 179.472 160.661 185.169 159.653C187.19 159.296 188.791 159.154 190.898 159.154C194.956 159.149 198.611 159.774 202.378 161.112C209.406 163.616 215.712 168.801 219.469 175.168C220.617 177.115 221.684 179.529 222.287 181.534C223.015 183.949 223.398 184.72 224.287 185.597C225.796 187.072 226.955 188.158 226.955 188.09C226.955 187.98 226.702 186.095 226.599 185.418C225.931 181.115 224.212 176.685 221.608 172.538C218.671 167.867 214.521 163.899 209.519 160.976C204.615 158.115 199.565 156.535 193.862 156.079C192.897 156.005 190.159 155.974 189.146 156.026Z" fill="#9DEDF0"/>
<path d="M189.2 165.033C181.811 165.599 175.289 168.791 170.66 174.107C170.126 174.722 169.285 175.782 169.285 175.839C169.285 175.855 170.18 175.866 171.274 175.866H173.263L173.446 175.724C173.543 175.645 173.99 175.241 174.432 174.821C175.537 173.787 176.119 173.289 176.868 172.732C180.28 170.202 184.198 168.696 188.634 168.218C190.407 168.03 192.989 168.108 194.859 168.418C199.969 169.252 204.534 171.599 208.069 175.204C208.398 175.535 208.722 175.818 208.792 175.839C208.867 175.855 209.794 175.86 210.856 175.855L212.785 175.839L212.397 175.341C207.945 169.599 201.596 166.056 194.159 165.153C193.415 165.064 192.887 165.038 191.356 165.027C190.321 165.022 189.351 165.022 189.2 165.033Z" fill="#9DEDF0"/>
<path d="M192.569 197.894C192.569 216.007 192.574 216.511 192.666 216.411C192.725 216.354 193.496 215.409 194.385 214.312C195.269 213.215 196.859 211.252 197.91 209.956C200.885 206.282 201.419 205.615 201.499 205.468C201.553 205.363 201.569 203.804 201.569 196.855C201.569 189.617 201.58 188.363 201.645 188.274C201.72 188.174 201.871 188.174 209.438 188.158C214.86 188.153 217.221 188.163 217.383 188.205C217.577 188.253 217.976 188.62 220.611 191.181C222.266 192.787 223.63 194.157 223.646 194.226C223.667 194.289 223.64 194.588 223.592 194.882C223.543 195.176 223.446 195.805 223.365 196.283C223.214 197.228 222.983 198.34 222.805 198.991C221.431 203.951 219.323 207.977 216.154 211.688C215.443 212.522 213.254 214.648 212.376 215.356C208.22 218.726 203.483 221.098 198.713 222.206C196.363 222.747 194.347 222.988 191.755 223.035C188.537 223.093 185.934 222.81 183.002 222.08C176.982 220.584 171.851 217.708 167.604 213.451C164.467 210.307 162.014 206.654 160.457 202.791C158.824 198.734 158.031 194.073 158.263 189.827C158.323 188.704 158.328 188.368 158.274 188.247C158.204 188.074 155.563 185.471 155.461 185.471C155.423 185.471 155.374 185.681 155.337 186.032C155.304 186.347 155.24 186.893 155.197 187.255C154.949 189.297 154.932 192.514 155.164 194.735C155.358 196.587 155.87 199.128 156.404 200.876C158.867 208.953 163.847 215.561 171.048 220.306C176.394 223.833 182.565 225.817 189.216 226.148C190.698 226.221 193.921 226.106 195.802 225.906C201.047 225.355 207.514 222.815 212.349 219.408C217.124 216.039 221.005 211.41 223.667 205.898C225.069 203.001 225.834 200.755 226.411 197.858C226.75 196.141 227.068 193.48 226.987 193.055C226.95 192.877 226.842 192.745 226.238 192.168C225.845 191.795 224.05 190.058 222.239 188.305C219.436 185.581 218.919 185.103 218.736 185.056C218.585 185.014 215.626 184.998 208.576 184.998C199.662 184.998 198.616 185.009 198.508 185.082L198.39 185.161V194.525C198.39 203.72 198.39 203.888 198.282 204.219C198.174 204.565 198.115 204.655 197.576 205.295C197.414 205.489 196.967 206.035 196.589 206.502C196.212 206.974 195.889 207.358 195.878 207.358C195.867 207.358 195.856 201.736 195.856 194.866V182.374H204.307C211.519 182.374 212.775 182.364 212.866 182.301C212.963 182.227 212.969 182.138 212.985 180.752L213.001 179.277H202.782H192.569V197.894Z" fill="#9DEDF0"/>
<path d="M164.731 192.451C164.709 192.483 165.545 194.005 166.585 195.837C167.625 197.663 168.477 199.175 168.477 199.191C168.477 199.206 167.372 199.227 166.019 199.233L163.567 199.248L164.553 200.545C165.097 201.253 166.898 203.621 168.558 205.799C170.218 207.977 171.581 209.746 171.592 209.719C171.597 209.698 171.441 209.284 171.236 208.796C169.937 205.704 168.423 202.062 168.423 202.035C168.423 202.02 169.42 202.004 170.633 202.004C172.654 202.004 172.842 201.999 172.842 201.915C172.842 201.826 172.708 201.532 170.498 196.834C168.396 192.367 168.531 192.619 168.116 192.472C167.857 192.383 164.785 192.367 164.731 192.451Z" fill="#9DEDF0"/>
<path d="M214.154 192.452C213.88 192.509 213.648 192.656 213.513 192.861C213.438 192.966 212.926 194.01 212.37 195.181C211.821 196.351 211.061 197.942 210.694 198.724C210.042 200.094 209.223 201.878 209.223 201.931C209.223 201.941 210.215 201.952 211.427 201.952C212.645 201.952 213.648 201.973 213.664 201.999C213.68 202.02 213.513 202.466 213.297 202.98C213.082 203.495 212.511 204.865 212.025 206.019C211.546 207.174 211.007 208.455 210.834 208.864C210.662 209.279 210.538 209.615 210.565 209.615C210.613 209.615 210.317 210.003 216.278 202.172C216.591 201.757 217.221 200.928 217.674 200.335L218.504 199.248L216.046 199.233C214.693 199.227 213.588 199.212 213.588 199.201C213.588 199.18 215.152 196.409 216.515 194.026C217.162 192.887 217.372 192.473 217.313 192.467C217.076 192.436 214.295 192.425 214.154 192.452Z" fill="#9DEDF0"/>
<path d="M208.926 211.483C208.334 212.024 207.595 212.622 206.717 213.262C203.294 215.766 199.505 217.367 195.479 218.007C193.83 218.27 193.35 218.301 191.06 218.301C189.152 218.296 188.758 218.285 187.934 218.186C184.867 217.813 182.253 217.057 179.606 215.782C177.37 214.7 175.602 213.53 173.322 211.609L172.977 211.32L173.327 211.714C173.521 211.929 173.99 212.407 174.373 212.779C177.973 216.27 182.722 218.511 187.912 219.167C192.709 219.771 197.694 218.962 201.941 216.889C204.491 215.64 206.921 213.834 208.716 211.845C209.482 211 209.503 210.958 208.926 211.483Z" fill="#9DEDF0"/>
<defs>
<linearGradient id="paint0_linear_253528_150" x1="254.568" y1="-341.422" x2="507.315" y2="278.31" gradientUnits="userSpaceOnUse">
<stop offset="0.00887753" stop-color="#DEF9FA"/>
<stop offset="0.1723" stop-color="#BEF3F5"/>
<stop offset="0.4204" stop-color="#9DEDF0"/>
<stop offset="0.5512" stop-color="#7DE7EB"/>
<stop offset="0.7154" stop-color="#5CE1E6"/>
<stop offset="1" stop-color="#33BBCF"/>
</linearGradient>
<linearGradient id="paint1_linear_253528_150" x1="385.564" y1="490.104" x2="-7.98746" y2="282.496" gradientUnits="userSpaceOnUse">
<stop offset="0.00887753" stop-color="#DEF9FA"/>
<stop offset="0.1723" stop-color="#BEF3F5"/>
<stop offset="0.4204" stop-color="#9DEDF0"/>
<stop offset="0.5512" stop-color="#7DE7EB"/>
<stop offset="0.7154" stop-color="#5CE1E6"/>
<stop offset="1" stop-color="#33BBCF"/>
</linearGradient>
<linearGradient id="paint2_linear_253528_150" x1="286.482" y1="338.366" x2="92.8379" y2="236.214" gradientUnits="userSpaceOnUse">
<stop offset="0.00887753" stop-color="#DEF9FA"/>
<stop offset="0.1723" stop-color="#BEF3F5"/>
<stop offset="0.4204" stop-color="#9DEDF0"/>
<stop offset="0.5512" stop-color="#7DE7EB"/>
<stop offset="0.7154" stop-color="#5CE1E6"/>
<stop offset="1" stop-color="#33BBCF"/>
</linearGradient>
</defs>
</svg>
