<svg xmlns="http://www.w3.org/2000/svg" width="160" height="45" viewBox="0 0 160 45" fill="#73808C">
<path d="M94.5649 44.6488H91.378L88.5109 40.2991H85.4382V44.6488H82.7539V33.8425H90.1558C90.9211 33.8425 91.515 33.9104 91.9377 34.0464C92.623 34.2503 93.1485 34.6241 93.5254 35.1678C93.9024 35.7115 94.0851 36.3458 94.0851 37.0708C94.0851 37.5918 93.9937 38.0676 93.7996 38.498C93.5711 39.0078 93.2627 39.3816 92.8515 39.6194C92.4403 39.8573 91.9148 40.0272 91.2866 40.1405L94.5649 44.6601V44.6488ZM85.4496 35.7342V38.3848H89.8816C90.8754 38.3848 91.378 37.9543 91.378 37.0934C91.378 36.1872 90.8411 35.7342 89.7788 35.7342H85.4496ZM95.7071 33.8312H98.3915V40.4124C98.3915 40.8541 98.4714 41.2279 98.6428 41.5564C98.8141 41.8736 99.0425 42.1228 99.3395 42.304C99.6365 42.4853 99.9678 42.6099 100.333 42.6892C100.699 42.7685 101.087 42.8138 101.533 42.8138C101.91 42.8138 102.264 42.7798 102.595 42.7118C102.926 42.6439 103.257 42.5306 103.577 42.3833C103.897 42.2247 104.148 42.0095 104.343 41.715C104.525 41.4205 104.628 41.0807 104.628 40.6842V33.8198H107.313V40.6955C107.313 42.1115 106.787 43.1876 105.725 43.9125C104.674 44.6375 103.28 44.9999 101.567 44.9999C99.8193 44.9999 98.4143 44.6375 97.3292 43.9012C96.2554 43.1649 95.7186 42.0888 95.7186 40.6729V33.8312H95.7071ZM109.528 33.8312H116.496C116.907 33.8312 117.239 33.8425 117.501 33.8651C117.764 33.8878 118.107 33.9671 118.518 34.103C118.929 34.2389 119.261 34.4428 119.512 34.726C119.923 35.1904 120.117 35.7681 120.117 36.4818C120.117 37.6258 119.523 38.3961 118.335 38.7812C119.877 39.1437 120.654 40.0499 120.666 41.5111C120.666 42.27 120.506 42.8704 120.197 43.3348C119.992 43.6407 119.763 43.8899 119.5 44.0824C119.238 44.275 118.941 44.4109 118.598 44.4902C118.255 44.5695 117.981 44.6148 117.764 44.6261C117.547 44.6375 117.262 44.6488 116.896 44.6488H109.517V33.8425L109.528 33.8312ZM112.19 38.0676H116.245C117.113 38.0676 117.536 37.6711 117.536 36.8782C117.524 36.0966 117.102 35.7002 116.256 35.7002H112.19V38.0789V38.0676ZM112.19 42.7345H116.393C117.456 42.7345 117.993 42.2474 117.993 41.2619C117.993 40.3897 117.513 39.9479 116.565 39.9479H112.19V42.7345ZM132.979 44.6375H122.653V33.8312H132.671V35.7795H125.349V38.2148H132.431V40.1405H125.349V42.7118H132.979V44.6375ZM145.464 44.6375H134.407V42.6665L141.82 35.7455H134.944V33.8312H145.464V35.7455L138.039 42.6665H145.464V44.6375ZM159.811 44.6375H157.115V39.9932H150.627V44.6375H147.931V33.8312H150.627V37.9996H157.115V33.8312H159.811V44.6375Z" fill="#73808C"/>
<path d="M0 19.6109L5.77841 18.1517C7.02262 20.7617 9.88191 22.0667 14.3563 22.0667C14.8588 22.0667 15.3732 22.043 15.8996 21.9955C16.426 21.9244 17.0959 21.7939 17.9095 21.604C18.723 21.4142 19.381 21.082 19.8835 20.6075C20.4099 20.1092 20.6731 19.4923 20.6731 18.7567C20.6731 18.4245 20.6132 18.1279 20.4936 17.8669C20.3979 17.6059 20.1945 17.3805 19.8835 17.1907C19.5963 17.0009 19.3212 16.8466 19.058 16.728C18.8187 16.6094 18.4359 16.4907 17.9095 16.3721C17.3831 16.2535 16.9524 16.1704 16.6174 16.123C16.3064 16.0518 15.8039 15.9687 15.11 15.8738C13.1001 15.5654 11.7004 15.3518 10.9108 15.2332C10.1212 15.0908 9.24784 14.901 8.29076 14.6637C7.33367 14.4264 6.53211 14.1536 5.88608 13.8451C3.23016 12.6113 1.90221 10.6181 1.90221 7.86572C1.90221 6.08615 2.4645 4.59131 3.58907 3.38119C4.71365 2.14735 6.13731 1.28129 7.86007 0.783014C9.58282 0.261005 11.5448 0 13.7461 0C20.3261 0 24.7526 2.00499 27.0257 6.01496L21.032 7.50981C19.9552 5.49295 17.4668 4.48453 13.5667 4.48453C9.88191 4.48453 8.03952 5.45736 8.03952 7.40303C8.03952 8.42332 8.70948 9.14702 10.0494 9.57412C10.6237 9.74021 13.3394 10.2504 18.1966 11.1046C19.0819 11.2706 19.8117 11.413 20.3859 11.5316C20.9602 11.6503 21.69 11.8876 22.5753 12.2435C23.4845 12.5994 24.2023 13.0146 24.7287 13.4892C25.2551 13.9637 25.7217 14.6162 26.1284 15.4467C26.5352 16.2535 26.7386 17.1907 26.7386 18.2584C26.7386 23.8819 22.4437 26.6936 13.8538 26.6936C10.2647 26.6936 7.36956 26.1123 5.16826 24.9496C2.99089 23.787 1.26814 22.0074 0 19.6109Z" fill="#73808C"/>
<path d="M30.7227 13.3468C30.7227 10.9978 31.1534 8.94533 32.0148 7.18948C32.8762 5.40991 34.0366 4.02184 35.4962 3.02528C36.9797 2.00499 38.6067 1.2457 40.3773 0.747423C42.1719 0.249141 44.086 0 46.1199 0C48.2015 0 50.1277 0.225413 51.8983 0.676239C53.6928 1.12706 55.3438 1.83889 56.8512 2.81173C58.3825 3.78456 59.5908 5.1489 60.4761 6.90475C61.3614 8.6606 61.8041 10.7249 61.8041 13.0977C61.8041 17.3212 60.4522 20.6549 57.7485 23.0989C55.0686 25.5191 51.2642 26.7292 46.3352 26.7292C41.4062 26.7292 37.5659 25.5191 34.8143 23.0989C32.0866 20.6787 30.7227 17.428 30.7227 13.3468ZM37.2548 13.5248C37.2548 14.5925 37.4223 15.6247 37.7573 16.6212C38.0923 17.5941 38.5948 18.5194 39.2647 19.3974C39.9586 20.2516 40.9037 20.9397 42.1001 21.4617C43.3204 21.96 44.7082 22.2091 46.2634 22.2091C47.8426 22.2091 49.2184 21.96 50.3909 21.4617C51.5633 20.9397 52.4486 20.3346 53.0468 19.6465C53.6689 18.9347 54.1594 18.1279 54.5183 17.2263C54.9011 16.3246 55.1284 15.5891 55.2002 15.0196C55.2959 14.4264 55.3438 13.8807 55.3438 13.3824C55.3438 10.9622 54.5422 8.88601 52.9391 7.15389C51.3599 5.39805 49.1347 4.52012 46.2634 4.52012C43.3443 4.52012 41.1071 5.42177 39.5519 7.22507C38.0205 9.00465 37.2548 11.1046 37.2548 13.5248Z" fill="#73808C"/>
<path d="M94.9848 25.9106H88.7398L73.0915 8.29282V25.9106H67.0618V0.783014H73.4145L88.9552 18.3296V0.783014H94.9848V25.9106Z" fill="#73808C"/>
<path d="M129.349 25.9106H122.243L120.09 21.1769H107.097L104.944 25.9106H98.0167L110.255 0.783014H117.111L129.349 25.9106ZM118.044 16.728L113.629 6.90475L109.143 16.728H118.044Z" fill="#73808C"/>
<path d="M160 25.9106H152.499L145.751 15.8026H138.501V25.9106H132.185V0.783014H149.628C151.422 0.783014 152.822 0.937244 153.827 1.2457C155.43 1.72026 156.674 2.59818 157.559 3.87948C158.445 5.13704 158.887 6.60816 158.887 8.29282C158.887 9.50293 158.66 10.6063 158.205 11.6028C157.679 12.7892 156.925 13.6553 155.944 14.201C154.987 14.7467 153.767 15.1501 152.283 15.4111L160 25.9106ZM138.501 5.19636V11.3537H148.946C151.291 11.3537 152.463 10.3571 152.463 8.364C152.463 6.25224 151.207 5.19636 148.694 5.19636H138.501Z" fill="#73808C"/>
</svg>