<svg width="1707" height="1552" viewBox="0 0 1707 1552" fill="none" xmlns="http://www.w3.org/2000/svg">
  <path d="M808.667 1.46647C730.8 8.93314 663.733 27.9998 598.667 61.4665C570.4 76.1331 563.733 80.1331 530 103.2C497.2 125.733 453.867 166 424.4 201.333C385.2 248.267 356 298.133 331.6 360C325.333 375.733 317.333 400.667 317.333 404.4C317.333 407.733 325.067 415.867 369.467 459.733C398.133 488.133 422.933 511.733 424.667 512.133C426.4 512.667 485.867 512.933 556.933 512.667C627.867 512.533 686.8 512.667 687.733 512.933C688.933 513.467 689.333 541.733 689.333 648.133C689.333 759.867 689.6 783.467 691.2 787.067C692.667 790.4 709.867 812.933 713.2 816C714.133 816.8 721.333 825.6 731.733 838.533C735.6 843.333 739.467 848.267 740.4 849.333C741.333 850.4 749.6 860.533 758.667 871.867C767.867 883.067 782.667 901.333 791.733 912.533C800.8 923.6 812.667 938.4 818.267 945.333C823.867 952.267 829.2 958.933 830.267 960C831.733 961.6 832 912 832 665.6V369.333H674H516L516.267 394.933L516.667 420.667H648.4C763.6 420.667 780.267 420.933 781.333 422.667C783.2 425.467 782.4 814.933 780.667 815.467C780 815.733 777.733 813.733 775.6 810.933C773.6 808.267 767.467 800.533 762 794C756.4 787.333 749.2 778.533 746 774.133L740 766.4V613.867V461.333H594.133C504.267 461.333 446.933 460.8 444.8 460C439.6 458.133 376 394 376 390.667C376 386.933 386.667 360.4 396 340.667C440.667 246.667 511.333 170.933 605.333 116.4C631.733 100.933 675.867 81.5999 700.667 74.5332C702.933 73.9999 708 72.5332 712 71.3332C807.067 43.7332 914 44.9332 1005.33 74.6665C1085.6 100.8 1152.27 141.466 1211.47 200.667C1266.8 255.867 1305.07 316.533 1330.4 389.333C1333.33 397.733 1336 405.867 1336.4 407.333C1340.4 423.067 1346.67 440.133 1351.73 450C1357.47 460.8 1360.4 464.267 1383.07 487.067C1396.8 500.933 1408.4 512 1408.8 511.6C1410 510.4 1402.67 458.267 1399.2 442.667C1395.07 424.667 1394.4 421.867 1392.67 416C1391.73 412.667 1389.6 405.2 1388 399.333C1383.73 384.267 1376.13 361.733 1372 352.667C1371.47 351.2 1367.73 342.8 1364 334C1328.13 251.067 1269.2 174.8 1198.53 119.733C1181.2 106.266 1160 91.5998 1140.67 79.9998C1102.4 56.7998 1044 30.9331 1010 21.9998C974 12.5331 959.867 9.5998 922.667 3.99979C896.133 0.133127 837.333 -1.2002 808.667 1.46647Z" fill="url(#paint0_linear_1_3)" />
  <path d="M814 144.667C708.533 154.8 612.667 202.933 544.133 280.533C531.6 294.667 516.133 314.533 516 316.267C516 316.933 530.4 317.333 548 317.333H580L597.867 300C607.6 290.4 617.333 281.333 619.467 279.733C621.6 278.133 623.6 276.4 624 276C625.733 274 637.867 264.8 648.133 257.6C713.6 212.133 793.6 190 876.667 194.533C901.2 195.867 940.8 203.6 966.4 212C1002.67 224 1034 240 1068 264C1078.53 271.6 1096.27 286.8 1110 300.4C1118 308.4 1125.6 315.467 1126.8 316.133C1129.33 317.467 1188.4 317.867 1189.73 316.533C1190.4 315.733 1189.2 314 1176.27 296.8C1167.07 284.667 1139.47 256.4 1120 239.2C1104.93 225.733 1076.93 206.667 1053.47 193.733C1045.2 189.067 1038.13 185.333 1038 185.333C1037.73 185.333 1032.4 182.933 1026.13 180C963.2 150.667 886.133 137.867 814 144.667Z" fill="url(#paint1_linear_1_3)" />
  <path d="M876 666.133C876 838.667 876.533 962.667 877.2 962.4C878.4 962 883.6 955.733 892.667 944C895.6 940.267 903.467 930.4 910 922C916.667 913.733 928 899.333 935.333 890C942.667 880.533 951.733 869.2 955.333 864.533C959.067 860 967.867 848.8 974.933 839.733C982.133 830.8 993.867 815.733 1001.33 806.4C1008.67 797.2 1015.2 788 1016 786C1016.8 783.733 1017.33 735.333 1017.33 648.667V514.8L1020.27 513.2C1022.4 512.133 1053.47 512 1143.33 512.667L1263.73 513.733L1310.67 560.667L1357.6 607.6L1356.67 614.133C1356.27 617.733 1355.33 623.333 1354.67 626.667C1353.87 630 1352.4 638.933 1351.2 646.667C1346.53 677.333 1335.6 715.333 1320.67 752C1280.4 851.467 1210.8 932.8 1116.93 990.133C1079.47 1012.93 1044.13 1029.33 1005.33 1042C996.933 1044.8 986.667 1047.73 982.667 1048.8C978.667 1049.73 971.733 1051.33 967.2 1052.53C962.667 1053.6 955.467 1055.2 951.2 1055.87C946.933 1056.53 938 1058.13 931.333 1059.2C914.8 1062 873.6 1065.33 855.333 1065.33C820.8 1065.33 769.333 1059.2 736 1051.2C688.8 1039.73 639.467 1020.13 599.333 996.933C590 991.6 554.667 968.4 553.333 966.8C552.933 966.4 548.8 963.067 544 959.333C488.4 916.8 436.667 854.933 402.933 790.667C384.533 755.6 368.267 711.467 359.467 672C349.733 628.8 346 588.667 347.333 542.133L348.267 511.6L326.533 489.867C306.133 469.333 301.333 465.6 301.333 469.733C301.333 470.533 300.133 481.867 298.667 494.667C294.933 527.6 294.933 590.133 298.667 620.667C300.133 632.4 301.867 645.333 302.533 649.333C306.8 673.467 308.267 680.667 311.333 692.667C336.8 792.8 385.067 878.533 456.667 950.133C505.2 998.8 549.733 1031.07 609.067 1060.4C636.933 1074.27 661.733 1083.87 696.667 1094.67C715.467 1100.4 753.467 1108.13 778 1111.2C817.733 1116 822.267 1116.27 855.333 1115.6C919.067 1114.27 947.6 1110.93 989.467 1100C1037.07 1087.73 1105.47 1058.93 1141.33 1036.13C1146.13 1033.07 1150.93 1030.27 1152 1029.73C1153.07 1029.2 1160.27 1024.67 1168 1019.47C1195.47 1001.07 1216 984.133 1243.73 956.8C1273.47 927.6 1298.13 897.6 1316.67 868.667C1320.8 862 1325.33 855.2 1326.53 853.333C1331.87 845.733 1346 819.733 1356.8 797.333C1371.2 767.6 1377.6 751.467 1388.67 717.333C1391.33 708.933 1395.73 692 1398.13 680.8C1404.53 650.933 1411.73 595.333 1410.27 589.067C1409.33 585.467 1290.93 467.067 1284 462.8L1279.33 460H1125.6C1022.13 460 970.933 460.4 969.2 461.333C966.667 462.667 966.667 465.733 966.667 610C966.667 712.667 966.267 759.333 965.2 764.133C964.267 768.533 962.133 772.8 959.467 775.867C957.067 778.533 950.533 786.667 944.933 794C939.333 801.333 933.2 809.067 931.333 811.333L928 815.333V618.267V421.333L1056.4 421.2C1126.93 421.067 1186.53 420.667 1188.67 420.133L1192.67 419.333L1193.07 394.267L1193.33 369.333H1034.67H876V666.133Z" fill="#14101D" />
  <path d="M445.333 579.467C445.333 580.533 454.4 597.067 475.733 635.333C482.667 647.733 490.8 662.533 493.733 668C496.667 673.467 499.867 679.2 500.933 680.667C504.933 686.667 504.8 686.667 465.333 686.667C444.8 686.667 428 686.933 428 687.333C428 687.867 448.533 715.733 490.133 771.333C496.667 780.133 502.933 788.667 504 790.267C505.6 792.533 549.6 852.133 551.6 854.533C551.733 854.8 552.267 854.8 552.667 854.533C553.6 853.6 551.6 847.867 545.333 832.667C542.267 825.333 536.533 811.467 532.667 802C528.8 792.4 521.067 773.333 515.467 759.6C509.867 745.867 505.333 734 505.333 733.333C505.333 732.533 518.267 732 538.533 732C556.933 732 572.133 731.467 572.533 730.8C572.933 730.133 569.067 720.4 563.867 709.2C558.667 697.867 552.4 684.133 550 678.667C547.6 673.2 542.667 662.4 538.933 654.667C530.533 636.667 525.333 625.333 525.333 624.8C525.333 624.533 522.267 617.733 518.533 609.867C514.8 601.867 510.533 592.8 509.067 589.733C504 578.933 503.333 578.667 472.533 578.667C457.6 578.667 445.333 579.067 445.333 579.467Z" fill="url(#paint2_linear_1_3)" />
  <path d="M1204.93 581.067C1200.67 583.6 1196.93 590.933 1172.93 643.333C1164.53 661.6 1155.2 681.733 1152.27 688C1146.27 701.067 1138.53 718.4 1135.47 725.6L1133.47 730.667H1167.33C1186 730.667 1201.47 731.067 1201.73 731.6C1202.13 732.267 1197.6 744.4 1191.73 758.667C1186 772.933 1175.2 799.333 1167.87 817.2C1155.2 848.4 1153.47 853.467 1155.73 853.2C1156.27 853.2 1164.13 842.933 1173.33 830.533C1182.53 818 1193.6 802.933 1198.13 796.933C1202.67 790.933 1214.27 775.2 1224.13 762C1233.87 748.8 1250.13 726.933 1260.27 713.467C1270.4 699.867 1278.67 688.267 1278.67 687.733C1278.67 687.2 1261.87 686.667 1241.33 686.667C1220.8 686.667 1204 686.4 1204 686C1204 685.333 1213.2 668.133 1224.67 647.333C1232.13 633.733 1254.8 593.333 1257.87 588C1259.73 584.667 1261.33 581.2 1261.33 580.267C1261.33 579.067 1255.2 578.667 1235.07 578.667C1212.4 578.667 1208.13 579.067 1204.93 581.067Z" fill="#14101D" />
  <path d="M1128 882.933C1107.87 901.6 1075.33 925.333 1050 939.733C1036.4 947.467 1007.33 961.333 1004.8 961.333C1004 961.333 1002.67 961.867 1002 962.533C1000.13 964.133 970.533 974 955.6 977.867C880.533 997.333 797.733 994.4 725.333 969.733C689.2 957.467 664.133 944.933 627.733 920.8C612.133 910.4 585.2 889.2 579.333 882.667C577.867 881.067 575.6 879.2 574.267 878.4C569.2 875.733 575.733 883.2 595.6 902.667C654.4 960.533 720.933 992.667 806.667 1004.8C831.467 1008.4 879.467 1008 905.333 1004.27C978 993.333 1042.4 964.933 1094 920.8C1103.07 913.067 1124.13 892.133 1130.53 884.533C1132.27 882.4 1134.93 879.333 1136.4 877.733C1137.87 876 1138.93 874.4 1138.53 874.133C1138.27 873.867 1133.47 877.867 1128 882.933Z" fill="url(#paint3_linear_1_3)" />
  <path d="M811.2 1178C793.6 1181.87 778.4 1192.8 771.333 1206.8C765.6 1218 762.133 1232 765.067 1232C765.6 1232 772.933 1233.2 781.333 1234.67C789.733 1236.13 797.333 1237.33 798 1237.33C798.8 1237.33 800.533 1234.13 801.867 1230.27C806.533 1217.2 815.733 1212 834.4 1212C846 1212 856.533 1216.8 860.267 1224C863.467 1230 862.933 1241.2 859.2 1246.27C853.6 1253.73 850 1255.2 836.933 1256L824.667 1256.67L824.267 1270.8L823.867 1284.93L837.2 1285.73C847.6 1286.27 851.733 1287.07 855.867 1289.47C862.8 1293.33 866.667 1300.93 866.667 1310.4C866.667 1319.2 864.267 1325.07 858.8 1329.73C853.2 1334.4 846.933 1336 834 1336C815.733 1336 805.2 1328.8 800 1312.93C798.267 1307.6 797.067 1306 795.2 1306.27C793.733 1306.4 785.067 1307.6 775.733 1308.8C756.267 1311.33 756.8 1310.8 760.533 1324.93C766.667 1348.13 784.8 1364.67 810 1370C824.133 1372.93 851.733 1372.67 864.533 1369.33C892.8 1362.13 911.2 1342 912.933 1316.4C914 1300.27 911.333 1292.4 900.933 1282C894.667 1275.73 890.667 1273.07 884.133 1270.67L875.6 1267.47L882.4 1264.27C899.333 1256.27 907.333 1244.13 907.333 1226C907.333 1217.07 906.667 1214.13 903.6 1207.87C896.533 1193.47 880.4 1182.27 860.533 1178C849.2 1175.6 822.267 1175.6 811.2 1178Z" fill="#14101D" />
  <path d="M1077.33 1176.8C1071.2 1177.87 1058.13 1183.07 1052.67 1186.4C1032 1199.07 1017.07 1226.4 1013.33 1258C1007.07 1311.2 1032.13 1359.6 1071.47 1370C1081.87 1372.8 1104.8 1372.8 1115.33 1370C1145.2 1362.13 1165.73 1336.93 1172.67 1299.33C1175.73 1283.33 1174.8 1255.87 1170.8 1240.8C1165.07 1219.2 1152.53 1199.07 1138.67 1188.8C1126.53 1179.87 1117.2 1177.07 1097.33 1176.67C1088.13 1176.4 1079.2 1176.53 1077.33 1176.8ZM1105.73 1213.73C1115.87 1218.13 1123.87 1232.13 1126.8 1251.07C1128.67 1263.33 1127.6 1298.27 1124.93 1307.47C1119.47 1326.53 1110.93 1334.93 1095.87 1335.73C1074.4 1336.93 1063.6 1323.2 1059.87 1290C1058.4 1276.93 1059.07 1258.93 1061.33 1246.67C1064.4 1230.67 1072.27 1218.13 1081.87 1213.87C1087.2 1211.6 1100.27 1211.47 1105.73 1213.73Z" fill="#14101D" />
  <path d="M1602.67 1178.13C1588.93 1181.73 1578.67 1187.87 1567.87 1198.53C1550.8 1215.6 1542 1237.33 1540.4 1266.8C1538.53 1301.73 1547.47 1329.87 1566.53 1349.2C1576.53 1359.2 1589.2 1366.53 1602.67 1370C1615.73 1373.47 1642.93 1372.27 1654.67 1367.87C1673.07 1360.93 1687.07 1348 1694.93 1330.8C1698.13 1324 1702.53 1308.4 1702.67 1303.87C1702.67 1303.33 1695.33 1302.53 1686.4 1302.13C1677.33 1301.6 1667.73 1300.93 1665.07 1300.53C1661.47 1300 1659.87 1300.27 1659.47 1301.6C1659.07 1302.53 1657.87 1306.8 1656.8 1310.93C1652.27 1327.07 1641.07 1336 1625.33 1336C1614.67 1336 1607.73 1333.07 1601.07 1325.6C1595.07 1319.07 1592.4 1310.67 1590.4 1292.67C1587.73 1267.6 1591.2 1240.27 1598.67 1226.93C1604.4 1217.07 1611.2 1212.93 1622.67 1212.27C1641.87 1211.2 1652.53 1221.6 1655.33 1244.67L1656.4 1252.27L1676.53 1251.33C1703.2 1250.13 1702.93 1250.27 1701.87 1244.13C1698.27 1222.67 1691.2 1207.07 1679.33 1195.2C1665.73 1181.6 1649.87 1176 1624.67 1176.13C1616.4 1176.13 1606.8 1177.07 1602.67 1178.13Z" fill="#14101D" />
  <path d="M12.5333 1180.4C12.2667 1181.33 12.1333 1189.87 12.2667 1199.47L12.6667 1216.67L36.4 1217.07L60 1217.33V1293.33V1369.33H82.6667H105.333V1293.33V1217.33H128.667H152V1198V1178.67H82.6667C26.8 1178.67 13.0667 1179.07 12.5333 1180.4Z" fill="url(#paint4_linear_1_3)" />
  <path d="M251.733 1179.47C251.067 1180 250.667 1222.93 250.667 1274.93V1369.33H273.333H296V1334C296 1314.53 296.133 1298.53 296.4 1298.4C296.533 1298.4 310.133 1297.87 326.667 1297.47L356.667 1296.67L365.6 1292.4C388 1281.87 399.867 1260.27 398.4 1233.2C397.333 1214.27 388.667 1199.33 373.067 1189.2C359.733 1180.67 352.8 1179.73 299.333 1178.93C273.733 1178.67 252.267 1178.8 251.733 1179.47ZM336.267 1214.67C346.533 1217.6 353.333 1226.4 353.6 1237.07C353.867 1245.87 351.333 1252.53 346 1257.2C339.6 1262.8 333.867 1264 313.067 1264H294.667V1238.67V1213.33H313.067C323.067 1213.33 333.6 1214 336.267 1214.67Z" fill="#6EE6EA" />
  <path d="M504 1274V1369.33H525.333H546.667V1360.53V1351.73L567.067 1322.27C598.4 1276.93 598.933 1276.27 606 1262.53L612.667 1249.6L612.267 1309.47L611.733 1369.33H633.867H656L655.733 1274.27L655.333 1179.33H634H612.667L612 1190L611.2 1200.67L585.733 1237.33C571.467 1257.73 557.2 1279.87 553.467 1287.33L546.667 1300.67V1239.6V1178.67H525.333H504V1274Z" fill="url(#paint5_linear_1_3)" />
  <path d="M1284.93 1179.47C1284.4 1180 1284 1222.93 1284 1274.93V1369.33H1306H1328V1330V1290.67L1357.73 1290.93L1387.33 1291.33L1387.73 1330.27L1388 1369.33H1409.33H1430.67V1274V1178.67H1409.33H1388L1387.73 1215.6L1387.33 1252.67L1357.73 1253.07L1328 1253.33L1327.73 1216.4L1327.33 1179.33L1306.53 1178.93C1295.2 1178.8 1285.47 1179.07 1284.93 1179.47Z" fill="#14101D" />
  <defs>
    <linearGradient id="paint0_linear_1_3" x1="863.132" y1="0.0732117" x2="863.132" y2="960.037" gradientUnits="userSpaceOnUse">
      <stop stop-color="#2EA6AA" />
      <stop offset="0.25" stop-color="#1FC6CC" />
      <stop offset="0.5775" stop-color="#2BDBE2" />
      <stop offset="0.75" stop-color="#17E4EC" />
      <stop offset="1" stop-color="#0DB9D2" />
    </linearGradient>
    <linearGradient id="paint1_linear_1_3" x1="852.939" y1="142.881" x2="852.939" y2="317.355" gradientUnits="userSpaceOnUse">
      <stop stop-color="#2EA6AA" />
      <stop offset="0.25" stop-color="#1FC6CC" />
      <stop offset="0.5775" stop-color="#2BDBE2" />
      <stop offset="0.75" stop-color="#17E4EC" />
      <stop offset="1" stop-color="#0DB9D2" />
    </linearGradient>
    <linearGradient id="paint2_linear_1_3" x1="500.281" y1="578.667" x2="500.281" y2="854.733" gradientUnits="userSpaceOnUse">
      <stop stop-color="#2EA6AA" />
      <stop offset="0.25" stop-color="#1FC6CC" />
      <stop offset="0.5775" stop-color="#2BDBE2" />
      <stop offset="0.75" stop-color="#17E4EC" />
      <stop offset="1" stop-color="#0DB9D2" />
    </linearGradient>
    <linearGradient id="paint3_linear_1_3" x1="855.621" y1="874.121" x2="855.621" y2="1007.29" gradientUnits="userSpaceOnUse">
      <stop stop-color="#2EA6AA" />
      <stop offset="0.25" stop-color="#1FC6CC" />
      <stop offset="0.5775" stop-color="#2BDBE2" />
      <stop offset="0.75" stop-color="#17E4EC" />
      <stop offset="1" stop-color="#0DB9D2" />
    </linearGradient>
    <linearGradient id="paint4_linear_1_3" x1="82.1072" y1="1178.67" x2="82.1072" y2="1369.33" gradientUnits="userSpaceOnUse">
      <stop stop-color="#2EA6AA" />
      <stop offset="0.25" stop-color="#1FC6CC" />
      <stop offset="0.5775" stop-color="#2BDBE2" />
      <stop offset="0.75" stop-color="#17E4EC" />
      <stop offset="1" stop-color="#0DB9D2" />
    </linearGradient>
    <linearGradient id="paint5_linear_1_3" x1="580" y1="1178.67" x2="580" y2="1369.33" gradientUnits="userSpaceOnUse">
      <stop stop-color="#2EA6AA" />
      <stop offset="0.25" stop-color="#1FC6CC" />
      <stop offset="0.5775" stop-color="#2BDBE2" />
      <stop offset="0.75" stop-color="#17E4EC" />
      <stop offset="1" stop-color="#0DB9D2" />
    </linearGradient>
  </defs>
</svg>